<?xml version="1.0"?>
<svg version="1.1" xmlns="http://www.w3.org/2000/svg" width="80" height="51" style=""><path fill="#081e8c" d="M19.82421875,29.552734375l0.9765625,0q1.435546875,0,2.119140625-0.478515625t0.68359375-1.50390625q0-1.015625-0.6982421875-1.4453125t-2.1630859375-0.4296875l-0.91796875,0l0,3.857421875z M19.82421875,32.013671875l0,5.478515625l-3.02734375,0l0-14.27734375l4.16015625,0q2.91015625,0,4.306640625,1.0595703125t1.396484375,3.2177734375q0,1.259765625-0.693359375,2.2412109375t-1.962890625,1.5380859375q3.22265625,4.814453125,4.19921875,6.220703125l-3.359375,0l-3.408203125-5.478515625l-1.611328125,0z M35.66181640625,28.48828125q-0.947265625,0-1.484375,0.6005859375t-0.615234375,1.7041015625l4.1796875,0q-0.01953125-1.103515625-0.576171875-1.7041015625t-1.50390625-0.6005859375z M36.08173828125,37.6875q-2.63671875,0-4.12109375-1.455078125t-1.484375-4.12109375q0-2.744140625,1.3720703125-4.2431640625t3.7939453125-1.4990234375q2.314453125,0,3.603515625,1.318359375t1.2890625,3.642578125l0,1.4453125l-7.041015625,0q0.048828125,1.26953125,0.751953125,1.982421875t1.97265625,0.712890625q0.986328125,0,1.865234375-0.205078125t1.8359375-0.654296875l0,2.3046875q-0.78125,0.390625-1.669921875,0.5810546875t-2.16796875,0.1904296875z M54.4095703125,37.4921875l-2.978515625,0l0-6.376953125q0-1.181640625-0.419921875-1.7724609375t-1.337890625-0.5908203125q-1.25,0-1.806640625,0.8349609375t-0.556640625,2.7685546875l0,5.13671875l-2.978515625,0l0-10.91796875l2.275390625,0l0.400390625,1.396484375l0.166015625,0q0.498046875-0.791015625,1.3720703125-1.1962890625t1.9873046875-0.4052734375q1.904296875,0,2.890625,1.0302734375t0.986328125,2.9736328125l0,7.119140625z M63.45029296875,35.314453125q0.78125,0,1.875-0.341796875l0,2.216796875q-1.11328125,0.498046875-2.734375,0.498046875q-1.787109375,0-2.6025390625-0.9033203125t-0.8154296875-2.7099609375l0-5.263671875l-1.42578125,0l0-1.259765625l1.640625-0.99609375l0.859375-2.3046875l1.904296875,0l0,2.32421875l3.056640625,0l0,2.236328125l-3.056640625,0l0,5.263671875q0,0.634765625,0.3564453125,0.9375t0.9423828125,0.302734375z"/><path fill="#187ec7" d=""/></svg>
